<?xml version="1.0" standalone="no"?>
<!DOCTYPE svg PUBLIC "-//W3C//DTD SVG 20010904//EN"
 "http://www.w3.org/TR/2001/REC-SVG-20010904/DTD/svg10.dtd">
<svg version="1.0" xmlns="http://www.w3.org/2000/svg"
 width="332.000000pt" height="232.000000pt" viewBox="0 0 332.000000 232.000000"
 preserveAspectRatio="xMidYMid meet">
<metadata>
Created by potrace 1.16, written by Peter Selinger 2001-2019
</metadata>
<g transform="translate(0.000000,232.000000) scale(0.100000,-0.100000)"
fill="#000000" stroke="none">
<path d="M1170 2269 c61 -5 53 -6 -45 -4 -76 2 -113 -1 -100 -6 13 -6 5 -7
-25 -3 -35 4 -42 3 -30 -6 12 -9 10 -10 -12 -6 -29 6 -90 -3 -84 -13 2 -3 -8
-6 -22 -7 -81 -3 -333 -149 -442 -255 -191 -187 -304 -421 -332 -691 -51 -478
247 -962 698 -1133 397 -151 844 -62 1152 229 194 184 316 424 340 673 l7 68
255 3 254 2 -123 -122 c-101 -100 -124 -128 -124 -152 0 -32 25 -56 57 -56 14
0 82 61 195 174 95 95 178 181 183 190 5 9 7 24 4 34 -10 30 -360 372 -382
372 -25 0 -38 -10 -53 -37 -17 -33 -5 -51 113 -171 56 -57 103 -107 104 -113
3 -6 -86 -8 -239 -7 l-243 3 -12 95 c-38 300 -217 584 -479 759 -55 37 -134
81 -176 99 -97 40 -225 75 -255 69 -13 -2 -21 -1 -19 3 6 10 -102 20 -179 18
l-61 -2 75 -7z m240 -139 c206 -53 394 -173 532 -340 56 -68 148 -230 148
-260 0 -6 7 -25 16 -41 8 -17 20 -54 25 -82 26 -140 29 -160 26 -164 -3 -2
-236 -5 -518 -6 l-514 -2 -3 -57 -3 -58 522 0 521 0 -6 -47 c-10 -71 -26 -142
-44 -193 -9 -25 -17 -50 -18 -57 -5 -28 -109 -211 -146 -258 -153 -189 -348
-307 -588 -357 -131 -28 -315 -21 -445 16 -625 179 -914 889 -589 1447 143
244 371 407 659 469 118 26 301 21 425 -10z"/>
</g>
</svg>
